<svg version="1.1" id="Layer_1" xmlns="http://www.w3.org/2000/svg" xmlns:xlink="http://www.w3.org/1999/xlink" x="0px" y="0px"
	 width="100%" viewBox="0 0 600 300" enable-background="new 0 0 600 300" xml:space="preserve">
<path fill="#FFFFFF" opacity="1.000000" stroke="none" 
	d="
M433.000000,301.000000 
	C288.706604,301.000000 144.913177,301.000000 1.059888,301.000000 
	C1.059888,201.067719 1.059888,101.135384 1.059888,1.101524 
	C200.876770,1.101524 400.753601,1.101524 600.815186,1.101524 
	C600.815186,100.999718 600.815186,200.999832 600.815186,301.000000 
	C545.135315,301.000000 489.317657,301.000000 433.000000,301.000000 
M407.136017,123.060837 
	C399.315033,124.731659 399.005280,125.578087 400.624542,133.480530 
	C402.084259,140.604599 402.927643,147.854980 403.208771,154.961792 
	C399.566101,154.779907 395.888428,154.183990 392.286896,154.488495 
	C377.493958,155.739304 367.153748,164.192474 359.141418,175.935074 
	C349.105011,190.644119 344.135284,207.337097 341.039551,224.620712 
	C337.268951,245.672531 331.736664,265.574432 312.115997,278.094727 
	C308.297577,280.531342 309.336975,285.303772 313.875610,286.197540 
	C321.825989,287.763184 329.920715,288.595978 338.830658,289.960907 
	C350.433777,289.638641 362.168549,290.310425 373.613586,288.794525 
	C400.375916,285.249939 421.911011,272.712097 435.968292,248.932846 
	C446.505585,231.107941 453.945038,212.354111 449.892822,191.170792 
	C446.710510,174.534866 438.405792,161.527802 421.041351,155.353989 
	C420.436981,147.314774 420.239624,139.218613 419.124634,131.250854 
	C417.745544,121.395729 417.416473,121.441780 407.136017,123.060837 
M210.231430,98.666405 
	C216.670120,105.760376 216.488785,105.560699 223.730499,98.984100 
	C228.857407,94.328087 234.558075,90.303894 240.302124,86.644516 
	C242.899994,91.055359 244.896515,95.991005 248.204788,99.781898 
	C259.641144,112.886581 275.094330,115.197983 291.361481,114.542183 
	C306.464325,113.933304 320.858032,109.862396 334.914520,104.698929 
	C354.201752,97.613991 373.354370,94.138382 392.809265,104.088745 
	C394.004211,104.699898 396.631989,104.119598 397.596741,103.126129 
	C398.597534,102.095589 399.104767,99.616959 398.586487,98.238350 
	C395.385040,89.722885 391.833191,81.339157 388.142639,72.224617 
	C382.804718,63.619129 378.037964,54.590824 372.033142,46.478989 
	C340.608185,4.027246 290.495331,5.098223 258.421997,21.256308 
	C238.420578,31.332724 227.693039,52.704868 231.877655,70.535797 
	C225.120911,75.310326 218.265472,79.952408 211.633621,84.894531 
	C204.163635,90.461250 204.211380,90.899719 210.231430,98.666405 
M284.703522,280.525604 
	C287.564453,272.136108 287.371521,271.745087 278.905121,269.149170 
	C276.532166,268.421570 274.044464,267.978851 271.778961,267.009277 
	C267.457916,265.160004 263.258911,263.025696 259.392670,260.457733 
	C272.411377,244.337433 270.862305,227.392471 262.076477,210.153229 
	C254.551941,195.388885 243.316589,183.655914 230.928955,172.944794 
	C218.972397,162.606430 207.153076,152.184555 201.042419,136.161957 
	C200.165314,131.263840 199.523453,126.305748 198.297211,121.496666 
	C197.795212,119.527916 196.373611,117.012596 194.730865,116.362961 
	C193.416870,115.843338 190.611679,117.299637 189.365036,118.685570 
	C178.300446,130.986572 168.812836,144.392166 161.695786,159.401321 
	C147.400879,189.547836 146.317871,219.166840 164.905441,248.147995 
	C174.910004,263.746857 186.890274,277.107849 204.973099,283.349335 
	C214.328323,286.578400 223.948120,288.045776 234.293304,284.187408 
	C238.986588,281.582855 243.679855,278.978271 249.035141,276.249054 
	C256.979584,279.848907 264.858948,283.602448 272.887543,287.003632 
	C280.307678,290.147095 282.001709,289.112091 284.703522,280.525604 
z"/>
<path fill="#6CCB45" opacity="1.000000" stroke="none" 
	d="
M388.397797,72.911652 
	C391.833191,81.339157 395.385040,89.722885 398.586487,98.238350 
	C399.104767,99.616959 398.597534,102.095589 397.596741,103.126129 
	C396.631989,104.119598 394.004211,104.699898 392.809265,104.088745 
	C373.354370,94.138382 354.201752,97.613991 334.914520,104.698929 
	C320.858032,109.862396 306.464325,113.933304 291.361481,114.542183 
	C275.094330,115.197983 259.641144,112.886581 248.204788,99.781898 
	C244.896515,95.991005 242.899994,91.055359 240.302338,86.018822 
	C262.796722,68.524513 287.370758,59.076374 316.238037,64.395462 
	C319.893463,62.434055 319.776611,61.065136 315.567047,58.859379 
	C302.250244,51.881481 288.157959,50.228065 273.627411,53.747345 
	C265.621643,55.686329 257.818512,58.461994 249.979309,60.523369 
	C251.325623,58.692371 252.389786,56.889050 253.941788,55.751053 
	C276.792236,38.995968 302.730530,34.922131 330.010162,38.665932 
	C352.407715,41.739731 369.921417,54.220829 384.984436,70.490059 
	C385.912018,71.491890 387.250488,72.113258 388.397797,72.911652 
z"/>
<path fill="#6CCB45" opacity="1.000000" stroke="none" 
	d="
M421.036987,156.346497 
	C438.405792,161.527802 446.710510,174.534866 449.892822,191.170792 
	C453.945038,212.354111 446.505585,231.107941 435.968292,248.932846 
	C421.911011,272.712097 400.375916,285.249939 373.613586,288.794525 
	C362.168549,290.310425 350.433777,289.638641 338.439880,289.518219 
	C340.075470,287.176331 342.029846,285.192719 344.140015,283.391663 
	C357.674347,271.839661 362.997009,256.203461 365.991455,239.441147 
	C369.550171,219.520233 373.611725,199.771973 383.996460,181.996597 
	C389.150757,173.174088 395.066498,165.110886 404.952545,161.387192 
	C405.009308,167.896286 405.179901,173.968704 405.004028,180.031097 
	C404.474396,198.290558 398.421570,214.578461 387.364929,229.101288 
	C386.090790,230.774902 385.686218,233.110550 384.878448,235.139252 
	C387.066071,234.412125 389.260162,233.703171 391.432648,232.933258 
	C391.684296,232.844070 391.816010,232.416458 392.342957,232.069183 
	C400.055267,226.856934 405.642303,220.150558 409.919861,212.310837 
	C419.463745,194.819214 421.752777,175.879700 421.036987,156.346497 
z"/>
<path fill="#6BCB45" opacity="1.000000" stroke="none" 
	d="
M248.373138,276.373718 
	C243.679855,278.978271 238.986588,281.582855 233.513214,284.119507 
	C222.578125,281.639618 214.290527,275.906494 206.675217,269.119507 
	C197.107666,260.592621 190.385773,249.896790 184.465042,238.705002 
	C176.855469,224.320816 174.503448,208.795792 176.344513,192.822510 
	C178.115677,177.455597 183.950195,163.281967 191.628998,149.949448 
	C194.282196,145.342743 197.895554,141.289032 201.070343,136.982727 
	C207.153076,152.184555 218.972397,162.606430 230.928955,172.944794 
	C243.316589,183.655914 254.551941,195.388885 262.076477,210.153229 
	C270.862305,227.392471 272.411377,244.337433 258.813049,260.766724 
	C256.971893,260.725922 255.626038,260.553680 254.461426,260.000092 
	C233.154236,249.872238 215.106583,236.212906 204.940826,213.683121 
	C204.267410,211.607925 203.870865,209.728790 202.874878,208.254654 
	C202.007111,206.970306 200.462952,206.142975 199.217682,205.113693 
	C198.504822,206.609299 197.050964,208.191559 197.213898,209.584717 
	C197.769089,214.331345 198.471909,219.141449 199.875198,223.694046 
	C205.704956,242.606934 219.096588,255.561264 234.573639,266.758118 
	C239.115295,270.043732 243.770172,273.172852 248.373138,276.373718 
z"/>
<path fill="#4EC323" opacity="1.000000" stroke="none" 
	d="
M201.056366,136.572342 
	C197.895554,141.289032 194.282196,145.342743 191.628998,149.949448 
	C183.950195,163.281967 178.115677,177.455597 176.344513,192.822510 
	C174.503448,208.795792 176.855469,224.320816 184.465042,238.705002 
	C190.385773,249.896790 197.107666,260.592621 206.675217,269.119507 
	C214.290527,275.906494 222.578125,281.639618 233.160278,284.052368 
	C223.948120,288.045776 214.328323,286.578400 204.973099,283.349335 
	C186.890274,277.107849 174.910004,263.746857 164.905441,248.147995 
	C146.317871,219.166840 147.400879,189.547836 161.695786,159.401321 
	C168.812836,144.392166 178.300446,130.986572 189.365036,118.685570 
	C190.611679,117.299637 193.416870,115.843338 194.730865,116.362961 
	C196.373611,117.012596 197.795212,119.527916 198.297211,121.496666 
	C199.523453,126.305748 200.165314,131.263840 201.056366,136.572342 
z"/>
<path fill="#4EC322" opacity="1.000000" stroke="none" 
	d="
M404.907990,160.945938 
	C395.066498,165.110886 389.150757,173.174088 383.996460,181.996597 
	C373.611725,199.771973 369.550171,219.520233 365.991455,239.441147 
	C362.997009,256.203461 357.674347,271.839661 344.140015,283.391663 
	C342.029846,285.192719 340.075470,287.176331 338.002014,289.405640 
	C329.920715,288.595978 321.825989,287.763184 313.875610,286.197540 
	C309.336975,285.303772 308.297577,280.531342 312.115997,278.094727 
	C331.736664,265.574432 337.268951,245.672531 341.039551,224.620712 
	C344.135284,207.337097 349.105011,190.644119 359.141418,175.935074 
	C367.153748,164.192474 377.493958,155.739304 392.286896,154.488495 
	C395.888428,154.183990 399.566101,154.779907 403.865601,155.293976 
	C404.650940,157.399414 404.779449,159.172668 404.907990,160.945938 
z"/>
<path fill="#4EC323" opacity="1.000000" stroke="none" 
	d="
M388.270203,72.568130 
	C387.250488,72.113258 385.912018,71.491890 384.984436,70.490059 
	C369.921417,54.220829 352.407715,41.739731 330.010162,38.665932 
	C302.730530,34.922131 276.792236,38.995968 253.941788,55.751053 
	C252.389786,56.889050 251.325623,58.692371 249.634369,60.601685 
	C243.551239,63.977165 237.868301,66.937233 232.185379,69.897301 
	C227.693039,52.704868 238.420578,31.332724 258.421997,21.256308 
	C290.495331,5.098223 340.608185,4.027246 372.033142,46.478989 
	C378.037964,54.590824 382.804718,63.619129 388.270203,72.568130 
z"/>
<path fill="#98DC7D" opacity="1.000000" stroke="none" 
	d="
M248.704132,276.311401 
	C243.770172,273.172852 239.115295,270.043732 234.573639,266.758118 
	C219.096588,255.561264 205.704956,242.606934 199.875198,223.694046 
	C198.471909,219.141449 197.769089,214.331345 197.213898,209.584717 
	C197.050964,208.191559 198.504822,206.609299 199.217682,205.113693 
	C200.462952,206.142975 202.007111,206.970306 202.874878,208.254654 
	C203.870865,209.728790 204.267410,211.607925 204.651184,213.893494 
	C204.411438,215.595016 204.040970,216.954163 204.541168,217.795959 
	C209.261444,225.739639 213.371063,234.207581 219.125305,241.339493 
	C228.953079,253.520264 241.920441,262.224243 255.804581,269.192017 
	C264.943085,273.778168 274.718475,277.095367 284.208679,280.980804 
	C282.001709,289.112091 280.307678,290.147095 272.887543,287.003632 
	C264.858948,283.602448 256.979584,279.848907 248.704132,276.311401 
z"/>
<path fill="#97DC7C" opacity="1.000000" stroke="none" 
	d="
M232.031525,70.216553 
	C237.868301,66.937233 243.551239,63.977165 249.579102,60.938778 
	C257.818512,58.461994 265.621643,55.686329 273.627411,53.747345 
	C288.157959,50.228065 302.250244,51.881481 315.567047,58.859379 
	C319.776611,61.065136 319.893463,62.434055 316.030579,64.082909 
	C303.567169,58.581196 291.259003,58.118378 278.541046,60.588600 
	C263.267303,63.555229 249.338074,69.683807 236.515717,78.150566 
	C227.305420,84.232231 218.793488,91.371506 209.970032,98.038986 
	C204.211380,90.899719 204.163635,90.461250 211.633621,84.894531 
	C218.265472,79.952408 225.120911,75.310326 232.031525,70.216553 
z"/>
<path fill="#97DC7C" opacity="1.000000" stroke="none" 
	d="
M404.952545,161.387192 
	C404.779449,159.172668 404.650940,157.399414 404.282654,155.337891 
	C402.927643,147.854980 402.084259,140.604599 400.624542,133.480530 
	C399.005280,125.578087 399.315033,124.731659 407.548889,123.530411 
	C408.081482,126.151299 407.857330,128.389557 408.375824,130.440048 
	C412.208099,145.595428 413.954376,160.888992 413.136963,176.572937 
	C412.334381,191.971359 408.790192,206.368668 400.371307,219.401733 
	C397.613922,223.670380 394.794434,227.898895 392.003357,232.145752 
	C391.816010,232.416458 391.684296,232.844070 391.432648,232.933258 
	C389.260162,233.703171 387.066071,234.412125 384.878448,235.139252 
	C385.686218,233.110550 386.090790,230.774902 387.364929,229.101288 
	C398.421570,214.578461 404.474396,198.290558 405.004028,180.031097 
	C405.179901,173.968704 405.009308,167.896286 404.952545,161.387192 
z"/>
<path fill="#C2EBAF" opacity="1.000000" stroke="none" 
	d="
M392.342957,232.069183 
	C394.794434,227.898895 397.613922,223.670380 400.371307,219.401733 
	C408.790192,206.368668 412.334381,191.971359 413.136963,176.572937 
	C413.954376,160.888992 412.208099,145.595428 408.375824,130.440048 
	C407.857330,128.389557 408.081482,126.151299 407.940399,123.566284 
	C417.416473,121.441780 417.745544,121.395729 419.124634,131.250854 
	C420.239624,139.218613 420.436981,147.314774 421.039185,155.850250 
	C421.752777,175.879700 419.463745,194.819214 409.919861,212.310837 
	C405.642303,220.150558 400.055267,226.856934 392.342957,232.069183 
z"/>
<path fill="#C1EAAE" opacity="1.000000" stroke="none" 
	d="
M210.100739,98.352692 
	C218.793488,91.371506 227.305420,84.232231 236.515717,78.150566 
	C249.338074,69.683807 263.267303,63.555229 278.541046,60.588600 
	C291.259003,58.118378 303.567169,58.581196 315.813293,63.857971 
	C287.370758,59.076374 262.796722,68.524513 240.152573,85.695396 
	C234.558075,90.303894 228.857407,94.328087 223.730499,98.984100 
	C216.488785,105.560699 216.670120,105.760376 210.100739,98.352692 
z"/>
<path fill="#C2EAAE" opacity="1.000000" stroke="none" 
	d="
M284.456116,280.753204 
	C274.718475,277.095367 264.943085,273.778168 255.804581,269.192017 
	C241.920441,262.224243 228.953079,253.520264 219.125305,241.339493 
	C213.371063,234.207581 209.261444,225.739639 204.541168,217.795959 
	C204.040970,216.954163 204.411438,215.595016 204.667633,214.265503 
	C215.106583,236.212906 233.154236,249.872238 254.461426,260.000092 
	C255.626038,260.553680 256.971893,260.725922 258.621307,261.042694 
	C263.258911,263.025696 267.457916,265.160004 271.778961,267.009277 
	C274.044464,267.978851 276.532166,268.421570 278.905121,269.149170 
	C287.371521,271.745087 287.564453,272.136108 284.456116,280.753204 
z"/>
</svg>