<?xml version="1.0" encoding="UTF-8" standalone="no"?>
<svg
   width="24"
   height="24"
   viewBox="0 0 24 24"
   fill="none"
   version="1.1"
   id="svg10"
   sodipodi:docname="light_good.svg"
   inkscape:version="1.4.2 (f4327f4, 2025-05-13)"
   xmlns:inkscape="http://www.inkscape.org/namespaces/inkscape"
   xmlns:sodipodi="http://sodipodi.sourceforge.net/DTD/sodipodi-0.dtd"
   xmlns="http://www.w3.org/2000/svg"
   xmlns:svg="http://www.w3.org/2000/svg">
  <defs
     id="defs10" />
  <sodipodi:namedview
     id="namedview10"
     pagecolor="#ffffff"
     bordercolor="#000000"
     borderopacity="0.25"
     inkscape:showpageshadow="2"
     inkscape:pageopacity="0.0"
     inkscape:pagecheckerboard="0"
     inkscape:deskcolor="#d1d1d1"
     showguides="true"
     inkscape:zoom="32"
     inkscape:cx="6.390625"
     inkscape:cy="10.234375"
     inkscape:window-width="1920"
     inkscape:window-height="991"
     inkscape:window-x="-9"
     inkscape:window-y="-9"
     inkscape:window-maximized="1"
     inkscape:current-layer="svg10" />
  <path
     d="M5.83337 10.3333C5.85014 12.3362 6.7323 14.234 8.25264 15.5379L9.33337 19.0503V20.3333C9.33451 21.2534 10.08 21.9988 11 22H13C13.9201 21.9988 14.6656 21.2534 14.6667 20.3333V19.0503L15.7474 15.5379C17.2678 14.234 18.1499 12.3362 18.1667 10.3333C18.1667 7.0496 15.5734 4.66663 12 4.66663C8.42664 4.66663 5.83337 7.0496 5.83337 10.3333V10.3333ZM14 20H10V19.3333H14V20ZM13 21.3333H11C10.5764 21.3328 10.1988 21.0659 10.057 20.6666H13.9431C13.8013 21.0659 13.4237 21.3328 13 21.3333ZM14.0874 18.6666H9.91264L9.15043 16.1886C10.8964 17.2708 13.1044 17.2708 14.8503 16.1886L14.0874 18.6666ZM11.3143 12.2386L11.8031 12.5903C11.9193 12.674 12.076 12.674 12.1924 12.5903L12.6867 12.2334C12.6748 12.2654 12.668 12.2991 12.6667 12.3333V16.2793C12.2251 16.3514 11.7749 16.3514 11.3334 16.2793V12.3333C11.3317 12.3009 11.3254 12.269 11.3143 12.2386ZM12 5.33329C15.1871 5.33329 17.5 7.43632 17.5 10.3333C17.5 13.0314 15.6667 15.4427 13.3334 16.131V12.4119L13.5817 12.5903C13.698 12.674 13.8547 12.674 13.9711 12.5903L14.8614 11.9506C14.9608 11.8821 15.0153 11.7653 15.0041 11.6451C14.9929 11.5249 14.9175 11.4202 14.8072 11.3714C14.6967 11.3226 14.5686 11.3372 14.472 11.4096L13.7764 11.9096L13.0811 11.4096C12.9647 11.326 12.808 11.326 12.6918 11.4096L11.9978 11.9096L11.3038 11.4096C11.1874 11.3258 11.0305 11.3258 10.9141 11.4096L10.2207 11.9096L9.52836 11.4096C9.37895 11.3019 9.17061 11.3357 9.06287 11.4851C8.95512 11.6346 8.98897 11.8429 9.13839 11.9506L10.0258 12.5903C10.1421 12.6743 10.2992 12.6743 10.4157 12.5903L10.6667 12.4096V16.131C8.33337 15.4427 6.50004 13.0314 6.50004 10.3333C6.50004 7.43632 8.81303 5.33329 12 5.33329V5.33329Z"
     fill="#EB8028"
     id="path1"
     style="fill:#008000;fill-opacity:1" />
  <path
     d="M7.34103 11.7389C7.37505 11.8915 7.51046 12.0001 7.66671 11.9999C7.69113 11.9998 7.71554 11.9973 7.73931 11.9923C7.82573 11.9731 7.90109 11.9205 7.94862 11.8458C7.99614 11.7711 8.01193 11.6806 7.99272 11.5943C7.67095 10.3649 7.93429 9.05561 8.70675 8.04633C9.43169 7.15945 10.5214 6.65147 11.6667 6.66661C11.8508 6.66661 12.0001 6.51736 12.0001 6.33328C12.0001 6.1492 11.8508 5.99994 11.6667 5.99994C10.3189 5.98399 9.03748 6.58377 8.18641 7.62901C7.28585 8.79519 6.97384 10.312 7.34103 11.7389Z"
     fill="#EB8028"
     id="path2"
     style="fill:#008000;fill-opacity:1" />
  <path
     d="M12.6667 6.66667H13C13.1841 6.66667 13.3334 6.51742 13.3334 6.33333C13.3334 6.14925 13.1841 6 13 6H12.6667C12.4826 6 12.3334 6.14925 12.3334 6.33333C12.3334 6.51742 12.4826 6.66667 12.6667 6.66667Z"
     fill="#EB8028"
     id="path3"
     style="fill:#008000;fill-opacity:1" />
  <path
     d="M12.3333 3.66667V2.33333C12.3333 2.14925 12.184 2 12 2C11.8159 2 11.6666 2.14925 11.6666 2.33333V3.66667C11.6666 3.85075 11.8159 4 12 4C12.184 4 12.3333 3.85075 12.3333 3.66667Z"
     fill="#EB8028"
     id="path4"
     style="fill:#008000;fill-opacity:1" />
  <path
     d="M17.0977 17.0977C16.9676 17.2279 16.9676 17.4388 17.0977 17.569L18.0977 18.569C18.2285 18.6953 18.4364 18.6935 18.5649 18.5649C18.6935 18.4364 18.6953 18.2285 18.569 18.0977L17.569 17.0977C17.4388 16.9676 17.2279 16.9676 17.0977 17.0977V17.0977Z"
     fill="#EB8028"
     id="path5"
     style="fill:#008000;fill-opacity:1" />
  <path
     d="M4.56894 4.09759C4.43808 3.97129 4.23024 3.97308 4.10166 4.10166C3.97308 4.23024 3.97129 4.43808 4.09759 4.56894L5.09759 5.56894C5.22844 5.69524 5.43629 5.69345 5.56487 5.56487C5.69345 5.43629 5.69524 5.22844 5.56894 5.09759L4.56894 4.09759Z"
     fill="#EB8028"
     id="path6"
     style="fill:#008000;fill-opacity:1" />
  <path
     d="M5.43103 18.5689C5.56124 18.699 5.77218 18.699 5.90239 18.5689L6.90239 17.5689C7.02869 17.4381 7.0269 17.2302 6.89832 17.1017C6.76974 16.9731 6.56189 16.9713 6.43103 17.0976L5.43103 18.0976C5.30098 18.2278 5.30098 18.4387 5.43103 18.5689V18.5689Z"
     fill="#EB8028"
     id="path7"
     style="fill:#008000;fill-opacity:1" />
  <path
     d="M5 11.6666H3.33333C3.14925 11.6666 3 11.8159 3 12C3 12.184 3.14925 12.3333 3.33333 12.3333H5C5.18408 12.3333 5.33333 12.184 5.33333 12C5.33333 11.8159 5.18408 11.6666 5 11.6666Z"
     fill="#EB8028"
     id="path8"
     style="fill:#008000;fill-opacity:1" />
  <path
     d="M19.4311 4.09759L18.4311 5.09759C18.3445 5.18125 18.3097 5.30527 18.3403 5.42181C18.3707 5.53834 18.4617 5.62933 18.5782 5.65976C18.6948 5.69036 18.8188 5.65553 18.9024 5.56894L19.9024 4.56894C20.0287 4.43808 20.0269 4.23024 19.8984 4.10166C19.7698 3.97308 19.5619 3.97129 19.4311 4.09759Z"
     fill="#EB8028"
     id="path9"
     style="fill:#008000;fill-opacity:1" />
  <path
     d="M18.6666 12C18.6666 12.184 18.8159 12.3333 19 12.3333H20.6666C20.8507 12.3333 21 12.184 21 12C21 11.8159 20.8507 11.6666 20.6666 11.6666H19C18.8159 11.6666 18.6666 11.8159 18.6666 12Z"
     fill="#EB8028"
     id="path10"
     style="fill:#008000;fill-opacity:1" />
  <path
     style="fill:#008000;fill-opacity:1;stroke-width:0.0310479"
     d="M 7.4710211,11.902592 C 7.3892365,11.828375 7.3618505,11.765054 7.3050164,11.518758 7.2464053,11.264762 7.2368473,11.131108 7.2361863,10.556274 7.2355247,9.9808545 7.2447681,9.8472627 7.3031746,9.5881161 7.6264264,8.1538665 8.4544476,7.0714606 9.686934,6.4720179 10.276848,6.1851021 10.762565,6.0591772 11.384812,6.0318328 l 0.393868,-0.017308 0.09514,0.095136 c 0.129987,0.1299872 0.13395,0.3142586 0.0094,0.4387735 -0.0796,0.079605 -0.109975,0.087265 -0.426908,0.1076879 -1.8095103,0.1166006 -3.1436898,1.2773637 -3.5288024,3.070129 -0.096447,0.4489768 -0.096072,1.2053228 8.233e-4,1.6608438 0.06075,0.285598 0.063085,0.327563 0.022584,0.405884 -0.06353,0.122854 -0.1218811,0.163605 -0.2609794,0.182262 -0.1021765,0.0137 -0.1362451,0.0024 -0.2189473,-0.07265 z"
     id="path11" />
  <path
     style="fill:#008000;fill-opacity:1;stroke-width:0.00390625"
     d="m 12.61038,6.6600246 c -0.11671,-0.019648 -0.218501,-0.1073748 -0.256611,-0.2211551 -0.04071,-0.1215297 -0.01084,-0.2487814 0.07975,-0.3397972 0.04215,-0.042345 0.0938,-0.071286 0.157104,-0.088028 0.034,-0.00899 0.03669,-0.00909 0.245315,-0.00894 0.205704,1.493e-4 0.211712,3.683e-4 0.242187,0.00883 0.122971,0.034139 0.212474,0.123497 0.242583,0.2421911 0.02845,0.1121649 -0.0038,0.2290292 -0.08605,0.3114855 -0.03723,0.037343 -0.07076,0.059945 -0.113311,0.0764 -0.05734,0.022172 -0.06922,0.023096 -0.290641,0.022591 -0.110993,-2.526e-4 -0.210142,-0.00186 -0.220331,-0.00358 z"
     id="path13" />
  <path
     style="fill:#008000;fill-opacity:1;stroke-width:0.0220971"
     d="M 18.517359,5.6157413 C 18.422232,5.5569818 18.37212,5.4939218 18.353766,5.4098776 18.317747,5.244948 18.336011,5.2199103 18.9185,4.6356921 c 0.301969,-0.3028646 0.575885,-0.5649187 0.608703,-0.5823426 0.177177,-0.094066 0.412776,0.023901 0.450621,0.2256317 0.02977,0.1586701 -0.02131,0.2273146 -0.593068,0.7969739 -0.294768,0.2936881 -0.563933,0.5445354 -0.598146,0.5574387 -0.09282,0.035006 -0.194828,0.028318 -0.269251,-0.017653 z"
     id="path14" />
  <path
     style="fill:#008000;fill-opacity:1;stroke-width:0.0220971"
     d="m 11.925459,3.9758733 c -0.08208,-0.017371 -0.16949,-0.090013 -0.216102,-0.1796013 -0.04506,-0.086606 -0.04541,-1.4873076 -4.01e-4,-1.5950367 0.09412,-0.2252574 0.42013,-0.247366 0.560011,-0.037977 0.04968,0.074373 0.05016,0.082172 0.05016,0.8242139 0,0.8047489 -8.29e-4,0.8112486 -0.117299,0.9200336 -0.06653,0.062138 -0.176847,0.089429 -0.276368,0.068368 z"
     id="path15" />
  <path
     style="fill:#008000;fill-opacity:1;stroke-width:0.0220971"
     d="M 5.1916389,5.6124846 C 5.1373029,5.585588 4.8972752,5.3617886 4.581398,5.043502 4.035962,4.4939054 3.9895075,4.4310734 4.0191228,4.2829971 4.0682542,4.0373402 4.3526089,3.9427503 4.5555313,4.1045621 4.6022023,4.1417781 4.8608087,4.3948837 5.1302115,4.6670188 5.5429286,5.0839217 5.6224503,5.1746857 5.6353795,5.2436039 5.6681785,5.4184364 5.6071165,5.5480199 5.4605769,5.614566 5.344403,5.667322 5.3017551,5.666992 5.1916389,5.612486 Z"
     id="path16" />
  <path
     style="fill:#008000;fill-opacity:1;stroke-width:0.0220971"
     d="m 3.1990936,12.283921 c -0.2356539,-0.116647 -0.2450141,-0.425722 -0.017113,-0.565076 0.06149,-0.0376 0.1327088,-0.04054 0.9833204,-0.04054 0.8778504,0 0.9201625,0.0019 0.9903709,0.0442 0.2237073,0.134801 0.209913,0.458054 -0.02408,0.564275 -0.087043,0.03951 -0.1533551,0.04246 -0.966291,0.04289 -0.8415849,4.51e-4 -0.876178,-0.0012 -0.9662073,-0.04575 z"
     id="path17" />
  <path
     style="fill:#008000;fill-opacity:1;stroke-width:0.0220971"
     d="m 5.5168446,18.612611 c -0.082859,-0.04083 -0.1278607,-0.0996 -0.1587583,-0.207332 -0.044511,-0.155201 -0.017258,-0.191991 0.5909425,-0.797751 0.4849813,-0.483034 0.5817094,-0.569541 0.6510356,-0.582237 0.2302006,-0.04216 0.4292712,0.171992 0.369084,0.397043 -0.01999,0.07475 -0.112186,0.178355 -0.5559452,0.624759 -0.2925895,0.294334 -0.5640791,0.550384 -0.6033103,0.569 -0.091836,0.04358 -0.2001512,0.04229 -0.2930483,-0.0035 z"
     id="path18" />
  <path
     style="fill:#008000;fill-opacity:1;stroke-width:0.0220971"
     d="m 18.151559,18.586604 c -0.05403,-0.03484 -0.323489,-0.291197 -0.598795,-0.569692 -0.41243,-0.417209 -0.504771,-0.52201 -0.524498,-0.59527 -0.04091,-0.151935 0.02585,-0.307047 0.159428,-0.370436 0.09716,-0.04611 0.196269,-0.04638 0.286675,-7.84e-4 0.0835,0.04211 1.058219,1.003414 1.123386,1.107923 0.05893,0.0945 0.06003,0.25671 0.0023,0.334705 -0.121347,0.163879 -0.286093,0.198246 -0.448474,0.09355 z"
     id="path19" />
  <path
     style="fill:#008000;fill-opacity:1;stroke-width:0.0220971"
     d="m 18.865928,12.283921 c -0.228697,-0.113203 -0.246112,-0.421982 -0.03133,-0.555544 0.08029,-0.04993 0.08308,-0.05007 0.99754,-0.05007 0.877851,0 0.920163,0.0019 0.990371,0.0442 0.223708,0.134801 0.209913,0.458054 -0.02408,0.564275 -0.08704,0.03951 -0.153356,0.04246 -0.966292,0.04289 -0.841584,4.51e-4 -0.876177,-0.0012 -0.966207,-0.04575 z"
     id="path20" />
  <path
     style="fill:#008000;fill-opacity:1;stroke-width:0.00390625"
     d="m 18.28125,18.657365 c -0.04683,-0.0065 -0.108728,-0.03264 -0.149841,-0.06335 -0.0276,-0.02061 -0.251329,-0.242452 -0.244518,-0.242452 0.0022,0 0.01275,0.0089 0.02341,0.01985 0.02893,0.02964 0.150646,0.14248 0.194523,0.18035 0.02113,0.01824 0.0515,0.04064 0.06749,0.04979 0.05166,0.02956 0.116327,0.04743 0.167527,0.0463 0.01953,-4.3e-4 0.01718,-0.001 -0.01409,-0.0036 -0.05244,-0.0043 -0.08087,-0.01239 -0.130444,-0.03691 -0.04551,-0.02251 -0.07227,-0.04315 -0.158203,-0.122017 -0.165943,-0.1523 -0.561412,-0.545038 -0.765224,-0.759939 -0.197898,-0.208667 -0.235331,-0.259608 -0.248853,-0.338654 -0.02185,-0.127742 0.03627,-0.257896 0.143502,-0.321329 l 0.02469,-0.01461 h 0.140819 0.140818 l 0.03115,0.02479 c 0.15562,0.123863 0.929948,0.887516 1.067411,1.052694 0.01104,0.01326 0.02455,0.03176 0.03003,0.04111 0.01928,0.03289 0.03398,0.08822 0.03856,0.145078 8.55e-4,0.01062 0.0014,0.0081 0.0018,-0.0078 8.08e-4,-0.03311 -0.01197,-0.08642 -0.02975,-0.124095 -0.01739,-0.03686 -0.04593,-0.07106 -0.15001,-0.179795 -0.0366,-0.03823 -0.06578,-0.07028 -0.06484,-0.07121 0.0036,-0.0036 0.190281,0.188861 0.206114,0.212459 0.06473,0.09648 0.07462,0.220487 0.02579,0.323548 -0.01947,0.0411 -0.04037,0.0699 -0.07371,0.101562 -0.04793,0.04551 -0.10718,0.0754 -0.172359,0.08695 -0.02234,0.004 -0.07757,0.0047 -0.101822,0.0013 z m 0.157942,-0.0297 c 0.05048,-0.02039 0.09755,-0.05568 0.140058,-0.105019 0.04096,-0.04754 0.06416,-0.108897 0.06278,-0.166039 -4.82e-4,-0.02006 -8.87e-4,-0.01877 -0.0036,0.01133 -0.0053,0.05919 -0.02068,0.0991 -0.055,0.142383 -0.04837,0.061 -0.119135,0.110107 -0.182157,0.126404 l -0.01459,0.0038 0.01427,-0.0016 c 0.0079,-8.73e-4 0.02504,-0.0059 0.0382,-0.01125 z"
     id="path21" />
  <path
     style="fill:#008000;fill-opacity:1;stroke-width:0.00390625"
     d="m 18.269531,18.653595 c -0.02493,-0.0056 -0.06294,-0.02009 -0.09325,-0.03559 -0.02626,-0.01343 -0.04519,-0.02741 -0.07813,-0.05769 -0.05478,-0.05036 -0.09525,-0.09157 -0.08993,-0.09157 0.0022,0 0.0084,0.0046 0.01356,0.01021 0.018,0.01941 0.09941,0.08965 0.125305,0.108121 0.05091,0.03631 0.12679,0.06186 0.180564,0.06081 l 0.02782,-5.45e-4 -0.0332,-0.003 c -0.04696,-0.0042 -0.07811,-0.01304 -0.123335,-0.03494 -0.04432,-0.02146 -0.06109,-0.03376 -0.130637,-0.09586 -0.217203,-0.193954 -0.822751,-0.803126 -0.951231,-0.956923 -0.0635,-0.07601 -0.08412,-0.113314 -0.09394,-0.169922 -0.02573,-0.148284 0.05352,-0.290973 0.191062,-0.344014 0.06397,-0.02467 0.128495,-0.02993 0.189042,-0.01542 0.05051,0.01211 0.07651,0.02619 0.124118,0.06719 0.172615,0.148668 0.654639,0.620284 0.943472,0.923102 0.06361,0.06669 0.109142,0.118946 0.125279,0.14378 0.02099,0.0323 0.03808,0.08789 0.04406,0.143329 8.12e-4,0.0075 9.9e-4,-3.9e-4 3.95e-4,-0.01758 -0.0015,-0.04323 -0.0196,-0.09822 -0.04469,-0.135731 -0.01049,-0.01568 -0.02273,-0.03182 -0.02719,-0.03586 -0.0045,-0.004 -0.008,-0.0093 -0.0079,-0.01163 9.9e-5,-0.0024 0.0098,0.0063 0.02152,0.01916 0.02604,0.0286 0.04859,0.07082 0.06269,0.11738 0.0092,0.03027 0.01062,0.04205 0.01086,0.0877 2.26e-4,0.04376 -0.0012,0.05803 -0.0086,0.08381 -0.02653,0.09258 -0.09053,0.170137 -0.174498,0.211464 -0.05118,0.02519 -0.0862,0.03295 -0.146138,0.0324 -0.02705,-2.49e-4 -0.0527,-0.0012 -0.05699,-0.0022 z m 0.160283,-0.02083 c 0.04832,-0.01662 0.09284,-0.04771 0.139746,-0.09757 0.04618,-0.04909 0.0737,-0.112071 0.07249,-0.165904 l -5.31e-4,-0.02359 -0.0029,0.02772 c -0.0057,0.05438 -0.02236,0.09558 -0.05534,0.13718 -0.04319,0.05447 -0.103034,0.09873 -0.16056,0.118757 -0.01764,0.0061 -0.02839,0.01118 -0.02389,0.01121 0.0045,2.8e-5 0.01845,-0.0035 0.03101,-0.0078 z"
     id="path22" />
  <path
     style="fill:#008000;fill-opacity:1;stroke-width:0.00390625"
     d="m 18.269531,18.653595 c -0.02493,-0.0056 -0.06294,-0.02009 -0.09325,-0.03559 -0.02626,-0.01343 -0.04519,-0.02741 -0.07813,-0.05769 -0.05066,-0.04658 -0.09535,-0.09157 -0.09095,-0.09157 0.0017,0 0.02097,0.01631 0.04286,0.03625 0.0527,0.04802 0.08603,0.07545 0.111522,0.09177 0.04559,0.02919 0.119087,0.05201 0.164593,0.05111 l 0.02539,-5.05e-4 -0.03138,-0.003 c -0.04499,-0.0044 -0.07645,-0.01336 -0.12096,-0.03457 -0.04326,-0.02061 -0.07292,-0.0429 -0.148438,-0.111525 -0.211084,-0.191829 -0.758597,-0.741635 -0.905774,-0.909568 -0.08653,-0.09873 -0.111018,-0.139304 -0.121884,-0.201942 -0.03273,-0.188693 0.102264,-0.357054 0.293601,-0.366159 0.07674,-0.0037 0.136765,0.01359 0.186438,0.05357 0.16325,0.131388 0.919852,0.877427 1.065745,1.050866 0.03755,0.04464 0.05511,0.08365 0.06771,0.150391 l 0.0059,0.03125 -0.0021,-0.02734 c -0.004,-0.05173 -0.02942,-0.112485 -0.06474,-0.154839 -0.02268,-0.0272 -0.01784,-0.0282 0.0068,-0.0014 0.0252,0.02742 0.05608,0.08751 0.06594,0.128313 0.03659,0.151402 -0.0392,0.307795 -0.181938,0.375424 -0.04648,0.02202 -0.08274,0.02954 -0.139926,0.02901 -0.02705,-2.49e-4 -0.0527,-0.0012 -0.05699,-0.0022 z m 0.170833,-0.02463 c 0.03528,-0.0132 0.08022,-0.04496 0.11823,-0.08354 0.05373,-0.05455 0.07929,-0.105699 0.08223,-0.164558 l 0.0014,-0.02734 -0.0037,0.02605 c -0.0054,0.03865 -0.02015,0.08112 -0.03715,0.107139 -0.02127,0.03256 -0.0766,0.087 -0.111147,0.109352 -0.01611,0.01043 -0.04424,0.02482 -0.0625,0.03199 -0.01826,0.0072 -0.02788,0.01217 -0.02138,0.01112 0.0065,-0.001 0.02181,-0.0056 0.03401,-0.01021 z"
     id="path23" />
  <path
     style="fill:#008000;fill-opacity:1;stroke-width:0.00390625"
     d="m 18.256702,18.650588 c -0.02801,-0.0068 -0.0676,-0.02381 -0.09984,-0.04293 -0.02545,-0.0151 -0.153818,-0.133489 -0.149462,-0.137844 0.001,-0.001 0.02525,0.0191 0.05386,0.0447 0.06843,0.06123 0.09389,0.08018 0.132904,0.09888 0.0438,0.021 0.08056,0.0311 0.120284,0.03304 l 0.0332,0.0016 -0.02982,-0.0035 c -0.0465,-0.0054 -0.07604,-0.01434 -0.122527,-0.03693 -0.04389,-0.02133 -0.0774,-0.0471 -0.160156,-0.123177 -0.217228,-0.199693 -0.751041,-0.736862 -0.890195,-0.895793 -0.08655,-0.09885 -0.110977,-0.139336 -0.121838,-0.201942 -0.01199,-0.06912 -0.0026,-0.131156 0.03012,-0.197996 0.04957,-0.101424 0.147884,-0.163288 0.267072,-0.168064 0.08105,-0.0032 0.136672,0.01451 0.19336,0.06172 0.191785,0.159723 0.968035,0.928731 1.068213,1.058247 0.02779,0.03593 0.04347,0.07402 0.05487,0.133287 0.0053,0.02776 0.0055,0.02798 0.0034,0.0059 -0.0049,-0.0523 -0.02539,-0.103253 -0.05963,-0.148401 -0.01119,-0.01476 -0.01959,-0.02758 -0.01867,-0.0285 9.19e-4,-9.2e-4 0.01081,0.0085 0.02199,0.02097 0.02392,0.02665 0.05504,0.08813 0.06456,0.127516 0.04221,0.174639 -0.06592,0.352196 -0.241786,0.397015 -0.03626,0.0092 -0.116006,0.01042 -0.1499,0.0022 z m 0.201372,-0.03009 c 0.01347,-0.0064 0.0384,-0.02207 0.05541,-0.03489 0.07527,-0.05672 0.121827,-0.129904 0.127188,-0.199945 l 0.0019,-0.02434 -0.0054,0.02799 c -0.01331,0.06889 -0.03047,0.100353 -0.08404,0.154112 -0.0381,0.03824 -0.08145,0.06818 -0.117976,0.0815 -0.01372,0.005 -0.02656,0.01052 -0.02852,0.01226 -0.0066,0.0058 0.02673,-0.005 0.05149,-0.01669 z"
     id="path24" />
  <path
     style="fill:#008000;fill-opacity:1;stroke-width:0.00390625"
     d="m 18.256702,18.650588 c -0.02801,-0.0068 -0.0676,-0.02381 -0.09984,-0.04293 -0.02544,-0.0151 -0.153818,-0.133488 -0.149464,-0.137843 0.001,-0.001 0.02567,0.01941 0.05478,0.04538 0.06299,0.0562 0.0931,0.07892 0.127273,0.09601 0.04226,0.02113 0.103239,0.03784 0.134507,0.03685 0.0066,-2.08e-4 -0.0031,-0.0027 -0.02158,-0.0056 -0.06469,-0.01008 -0.130638,-0.03971 -0.179965,-0.08086 -0.08892,-0.07417 -0.299259,-0.276392 -0.550211,-0.528986 -0.367346,-0.36975 -0.483465,-0.496315 -0.524733,-0.57194 -0.02127,-0.03899 -0.02754,-0.06786 -0.02752,-0.126682 3.3e-5,-0.0632 0.0065,-0.0915 0.03361,-0.146484 0.01749,-0.03551 0.02497,-0.0458 0.05574,-0.07668 0.0314,-0.03151 0.0403,-0.03794 0.0764,-0.05522 0.06147,-0.02943 0.08149,-0.03403 0.148281,-0.03407 0.04861,-3.5e-5 0.06078,0.0013 0.08584,0.0091 0.04239,0.01331 0.06013,0.0235 0.101661,0.05837 0.199144,0.167235 0.973095,0.935312 1.064341,1.056261 0.01983,0.02628 0.03823,0.06861 0.04636,0.106665 0.0032,0.01504 0.006,0.0232 0.0062,0.01814 0.0011,-0.03075 -0.02705,-0.09821 -0.05781,-0.138719 -0.01121,-0.01476 -0.01962,-0.02758 -0.0187,-0.0285 9.19e-4,-9.2e-4 0.01081,0.0085 0.02199,0.02097 0.02385,0.02658 0.05569,0.08884 0.06452,0.126156 0.04181,0.176716 -0.06543,0.353441 -0.241745,0.398375 -0.03626,0.0092 -0.116006,0.01042 -0.1499,0.0022 z m 0.205408,-0.03266 c 0.05072,-0.02508 0.11854,-0.08685 0.142937,-0.130187 0.0091,-0.01611 0.005,-0.01202 -0.01679,0.01705 -0.0371,0.0494 -0.103594,0.101841 -0.152175,0.120009 -0.01319,0.0049 -0.02397,0.0098 -0.02397,0.01086 0,0.0039 0.02187,-0.0038 0.05,-0.01774 z m 0.156276,-0.155139 c -0.0012,-0.0012 -0.0034,9.66e-4 -0.0049,0.0048 -0.0021,0.0056 -0.0017,0.006 0.0022,0.0022 0.0027,-0.0027 0.0039,-0.0058 0.0027,-0.007 z m 0.02042,-0.06136 c 0.0025,-0.01447 0.0036,-0.02854 0.0025,-0.03125 -0.0011,-0.0027 -0.0021,-5.43e-4 -0.0023,0.0048 -3.13e-4,0.009 -0.01152,0.05808 -0.0174,0.07617 -0.0014,0.0043 9.13e-4,7.81e-4 0.0051,-0.0078 0.0042,-0.0086 0.0097,-0.02746 0.01213,-0.04194 z m 0.0025,-0.116998 c -0.0012,-0.0031 -0.0022,-0.0022 -0.0024,0.0024 -1.69e-4,0.0041 7.54e-4,0.0064 0.0021,0.0051 0.0013,-0.0013 0.0014,-0.0047 3.08e-4,-0.0075 z"
     id="path25" />
  <path
     style="fill:#008000;fill-opacity:1;stroke-width:0.00390625"
     d="m 18.25,18.64884 c -0.06906,-0.02019 -0.106837,-0.04448 -0.182154,-0.117113 -0.03426,-0.03304 -0.06148,-0.06087 -0.0605,-0.06186 9.85e-4,-9.85e-4 0.02578,0.01939 0.05509,0.04528 0.07065,0.0624 0.0955,0.08081 0.132871,0.09845 0.03176,0.01499 0.08324,0.03117 0.09758,0.03065 0.0043,-1.55e-4 -0.0062,-0.0037 -0.02336,-0.0079 -0.04544,-0.01106 -0.11092,-0.04451 -0.148437,-0.0758 -0.156984,-0.130956 -0.798967,-0.769597 -0.974898,-0.969824 -0.106497,-0.121204 -0.126293,-0.161463 -0.126244,-0.256746 3.2e-5,-0.06285 0.0065,-0.09107 0.03336,-0.146328 0.01739,-0.03573 0.02439,-0.04536 0.05571,-0.07668 0.03141,-0.03141 0.04085,-0.03825 0.07668,-0.05561 0.05951,-0.02882 0.0808,-0.03367 0.148281,-0.03379 0.04871,-8.6e-5 0.06073,0.0012 0.08584,0.0091 0.04102,0.01288 0.05997,0.02343 0.0958,0.05332 0.197865,0.165075 0.942308,0.90315 1.073647,1.064463 0.01642,0.02017 0.0078,0.0055 -0.01225,-0.02075 -0.0095,-0.01248 -0.01645,-0.02355 -0.01541,-0.02459 0.0053,-0.0053 0.04432,0.04708 0.06153,0.08245 0.02242,0.04607 0.03096,0.07707 0.03395,0.123191 0.0101,0.155866 -0.09649,0.30039 -0.250489,0.339637 -0.04083,0.01041 -0.121783,0.01065 -0.156602,4.65e-4 z m 0.07332,-0.003 c -0.0026,-0.0011 -0.0079,-0.0011 -0.01172,-1.44e-4 -0.0038,9.9e-4 -0.0016,0.0019 0.0048,0.0019 0.0064,8e-5 0.0096,-7.31e-4 0.0069,-0.0018 z m 0.133534,-0.02646 c 0.05682,-0.02783 0.122006,-0.08581 0.148196,-0.13182 0.0091,-0.01594 0.0049,-0.01173 -0.01631,0.01658 -0.03777,0.05033 -0.10536,0.103705 -0.153597,0.121293 -0.01267,0.0046 -0.02303,0.009 -0.02303,0.0098 0,0.0043 0.01308,-3.67e-4 0.04474,-0.01588 z m 0.181188,-0.220976 c -1.7e-5,-0.0054 -0.0024,-9.7e-5 -0.0054,0.01172 -0.0029,0.01182 -0.0053,0.02324 -0.0051,0.02539 4.91e-4,0.0078 0.01054,-0.02764 0.01051,-0.03711 z m 0.0032,-0.02441 c -0.0011,-0.0027 -0.002,-4.88e-4 -0.002,0.0049 0,0.0054 8.86e-4,0.0076 0.002,0.0049 0.0011,-0.0027 0.0011,-0.0071 0,-0.0098 z m -0.0085,-0.136123 c -0.0062,-0.02374 -0.02685,-0.07384 -0.0305,-0.07384 -9.85e-4,0 0.0039,0.01317 0.01093,0.02928 0.007,0.0161 0.01504,0.0402 0.01788,0.05355 0.0028,0.01335 0.0058,0.02231 0.0066,0.01992 7.98e-4,-0.0024 -0.0014,-0.0154 -0.0049,-0.02891 z"
     id="path26" />
  <path
     style="fill:#008000;fill-opacity:1;stroke-width:0.00390625"
     d="m 17.204592,17.672779 c -0.147322,-0.148361 -0.163746,-0.169443 -0.186342,-0.239185 -0.051,-0.157422 0.02535,-0.330668 0.176509,-0.400508 0.04923,-0.02274 0.08925,-0.03026 0.150944,-0.02833 0.04659,0.0015 0.05706,0.0031 0.08984,0.01423 0.07515,0.02549 0.07831,0.0281 0.29972,0.248306 0.11006,0.10946 0.199299,0.19983 0.198307,0.200822 -9.91e-4,9.91e-4 -0.03307,-0.02878 -0.07129,-0.06617 -0.162456,-0.158914 -0.334605,-0.317177 -0.374222,-0.344035 -0.04532,-0.03073 -0.09956,-0.04398 -0.167754,-0.04099 -0.05661,0.0025 -0.08163,0.0089 -0.132812,0.03382 -0.04714,0.023 -0.08023,0.04924 -0.106916,0.0848 -0.04494,0.05988 -0.0646,0.119827 -0.06445,0.196478 1.44e-4,0.07036 0.01122,0.109265 0.04562,0.160156 0.03151,0.04662 0.120205,0.147123 0.22495,0.254894 0.02878,0.02962 0.05152,0.05466 0.05053,0.05565 -9.94e-4,9.94e-4 -0.06068,-0.05749 -0.132647,-0.129956 z"
     id="path27" />
  <path
     style="fill:#008000;fill-opacity:1;stroke-width:0.00390625"
     d="m 18.25,18.648791 c -0.03705,-0.01091 -0.0694,-0.02546 -0.09828,-0.0442 -0.02593,-0.01683 -0.148035,-0.131058 -0.144195,-0.134898 10e-4,-0.0011 0.02352,0.01733 0.04993,0.04085 0.07759,0.0691 0.127127,0.103999 0.159346,0.112277 0.0054,0.0014 -0.0071,-0.0064 -0.02767,-0.01723 -0.05541,-0.02921 -0.09861,-0.06657 -0.298497,-0.258124 -0.129525,-0.124126 -0.502206,-0.497877 -0.615237,-0.617004 -0.230194,-0.242609 -0.256055,-0.283102 -0.255705,-0.400385 1.81e-4,-0.06098 0.0082,-0.09413 0.03598,-0.148171 0.01454,-0.02832 0.0253,-0.04257 0.05368,-0.07109 0.03119,-0.03133 0.04045,-0.03806 0.07635,-0.05545 0.05951,-0.02882 0.0808,-0.03367 0.148281,-0.03379 0.04874,-8.6e-5 0.06072,0.0012 0.08589,0.0091 0.03943,0.01238 0.05569,0.02105 0.08794,0.04688 0.160246,0.128362 0.852112,0.810763 1.065956,1.051374 0.02029,0.02283 0.01985,0.02039 -0.0012,-0.007 -0.01937,-0.02517 -0.01187,-0.02387 0.01131,0.002 0.02334,0.02601 0.055,0.08763 0.0647,0.125934 0.0091,0.03592 0.01155,0.08731 0.006,0.125401 -0.01913,0.130796 -0.11839,0.240189 -0.247904,0.273196 -0.04095,0.01044 -0.121849,0.01065 -0.156602,4.16e-4 z m 0.07121,-0.0027 c -0.0013,-0.0013 -0.0047,-0.0014 -0.0075,-3.08e-4 -0.0031,0.0012 -0.0022,0.0022 0.0024,0.0024 0.0041,1.7e-4 0.0064,-7.54e-4 0.0051,-0.0021 z m -0.0341,-0.0055 c -0.0054,-0.0017 -0.01328,-0.0031 -0.01758,-0.0031 -0.0062,0 -0.0058,6.52e-4 0.002,0.0031 0.0054,0.0017 0.01328,0.0031 0.01758,0.0031 0.0062,0 0.0058,-6.52e-4 -0.002,-0.0031 z m -0.03906,-0.0098 c -0.01783,-0.0069 -0.02485,-0.0068 -0.0098,1.41e-4 0.0064,0.003 0.01436,0.0053 0.01758,0.0052 0.0032,-6.6e-5 -2.93e-4,-0.0025 -0.0078,-0.0054 z m 0.214844,-0.01376 c 0.0453,-0.02275 0.103983,-0.07404 0.132161,-0.115512 l 0.01302,-0.01917 -0.01292,0.01563 c -0.04709,0.05694 -0.09833,0.09941 -0.148891,0.123412 -0.01341,0.0064 -0.01999,0.01042 -0.01462,0.009 0.0054,-0.0014 0.01943,-0.0074 0.03125,-0.01336 z m 0.171326,-0.19913 c 0,-0.0037 -0.0012,-0.003 -0.0034,0.002 -0.0018,0.0043 -0.0034,0.01045 -0.0034,0.01367 0,0.0037 0.0012,0.003 0.0034,-0.002 0.0018,-0.0043 0.0034,-0.01045 0.0034,-0.01367 z m 0.0031,-0.02051 c -0.0011,-0.0027 -0.002,-4.88e-4 -0.002,0.0049 0,0.0054 8.87e-4,0.0076 0.002,0.0049 0.0011,-0.0027 0.0011,-0.0071 0,-0.0098 z m -0.0045,-0.15918 c -0.0035,-0.01602 -0.0067,-0.01286 -0.0034,0.0034 0.0014,0.0069 0.0033,0.01166 0.0043,0.01067 9.95e-4,-9.95e-4 5.96e-4,-0.0073 -8.88e-4,-0.01409 z m -0.01319,-0.03779 c -0.0046,-0.0079 -0.0057,-0.0054 -0.0019,0.0044 0.0013,0.0035 0.0033,0.0055 0.0043,0.0045 0.001,-10e-4 -3.7e-5,-0.005 -0.0023,-0.009 z m -0.01005,-0.02434 c -0.0086,-0.01659 -0.01136,-0.01531 -0.0033,0.0015 0.0036,0.0075 0.0072,0.01293 0.008,0.01208 8.48e-4,-8.48e-4 -0.0013,-0.007 -0.0047,-0.01362 z"
     id="path28" />
  <path
     style="fill:#008000;fill-opacity:1;stroke-width:0.00390625"
     d="m 18.244141,18.646868 c -0.06874,-0.02103 -0.101552,-0.04258 -0.178835,-0.117442 -0.03283,-0.0318 -0.05888,-0.05864 -0.05788,-0.05964 9.98e-4,-9.98e-4 0.02519,0.01874 0.05375,0.04386 0.07623,0.06703 0.118765,0.09735 0.147805,0.105354 0.0054,0.0015 -0.003,-0.004 -0.0186,-0.01225 C 18.120601,18.56998 18.060286,18.5151 17.70898,18.16866 17.350179,17.814822 17.134031,17.58805 17.071655,17.5 c -0.04088,-0.0577 -0.05173,-0.09286 -0.05183,-0.167969 -8.6e-5,-0.06305 0.0076,-0.09504 0.03583,-0.150124 0.01454,-0.02832 0.0253,-0.04257 0.05368,-0.07109 0.03119,-0.03134 0.04045,-0.03806 0.07635,-0.05544 0.0532,-0.02575 0.07774,-0.03205 0.134609,-0.03455 0.06599,-0.0029 0.120745,0.0099 0.163361,0.0381 0.103423,0.06851 0.897951,0.848353 1.090137,1.069996 0.01687,0.01946 0.01527,0.01407 -0.0027,-0.009 -0.01838,-0.02363 -0.0096,-0.02092 0.01269,0.0039 0.02272,0.02532 0.05467,0.0869 0.06445,0.124203 0.0091,0.0348 0.01193,0.09382 0.0062,0.129639 -0.01766,0.109942 -0.0889,0.202946 -0.192173,0.25089 -0.04557,0.02116 -0.07873,0.02772 -0.138831,0.02746 -0.04062,-1.7e-4 -0.05551,-0.0019 -0.07931,-0.0092 z m 0.222331,-0.03209 c 0.01414,-0.0078 0.03275,-0.01949 0.04134,-0.02604 0.02164,-0.0165 0.06648,-0.06018 0.08108,-0.07897 0.0067,-0.0086 -0.0038,0.0012 -0.02338,0.02173 -0.03674,0.03865 -0.07912,0.07094 -0.115081,0.08768 -0.01141,0.0053 -0.01825,0.0097 -0.01521,0.0097 0.003,2.1e-5 0.01711,-0.0063 0.03125,-0.01409 z m 0.167056,-0.197543 c -0.0012,-0.0031 -0.0022,-0.0022 -0.0024,0.0024 -1.7e-4,0.0041 7.53e-4,0.0064 0.0021,0.0051 0.0013,-0.0013 0.0014,-0.0047 3.09e-4,-0.0075 z m -9.95e-4,-0.180629 c -0.0014,-0.0057 -0.0034,-0.0097 -0.0043,-0.0087 -9.21e-4,9.21e-4 -4.99e-4,0.0064 9.38e-4,0.01208 0.0014,0.0057 0.0034,0.0097 0.0043,0.0087 9.2e-4,-9.21e-4 4.98e-4,-0.0064 -9.38e-4,-0.01208 z m -0.0173,-0.04836 c 0,-0.0017 -0.0027,-0.0066 -0.0059,-0.01074 -0.0055,-0.007 -0.0056,-0.0068 -0.0013,0.0032 0.0046,0.01075 0.0072,0.01352 0.0072,0.0076 z"
     id="path29" />
  <path
     style="fill:#008000;fill-opacity:1;stroke-width:0.00390625"
     d="m 18.258859,18.652027 c -0.0297,-0.007 -0.07773,-0.02802 -0.105542,-0.04617 -0.02707,-0.01767 -0.149744,-0.132215 -0.145812,-0.136148 0.001,-0.001 0.02406,0.01767 0.05122,0.04151 0.04648,0.04081 0.089,0.07558 0.07605,0.06219 -0.0032,-0.0033 -0.0208,-0.01876 -0.03906,-0.03429 -0.06128,-0.05211 -0.199739,-0.184297 -0.376899,-0.359843 -0.111419,-0.110404 -0.179589,-0.17514 -0.186083,-0.176709 -0.0067,-0.0016 -0.01203,-0.0069 -0.01542,-0.01522 -0.0029,-0.0072 -0.05675,-0.06581 -0.12476,-0.135792 -0.311026,-0.32003 -0.354209,-0.374173 -0.369877,-0.463762 -0.0069,-0.03973 -0.005,-0.0989 0.0045,-0.135847 0.0033,-0.01289 0.0151,-0.04189 0.02619,-0.06445 0.01752,-0.03566 0.02482,-0.04568 0.05581,-0.07668 0.03116,-0.03117 0.0408,-0.03817 0.07651,-0.05553 0.05308,-0.02582 0.07755,-0.03209 0.135068,-0.03466 0.07428,-0.0033 0.130542,0.01259 0.180153,0.05091 0.132615,0.102457 0.774788,0.732881 1.053207,1.033939 0.01688,0.01825 0.02502,0.02564 0.01808,0.01641 -0.01886,-0.0251 -0.01156,-0.02387 0.01161,0.002 0.02277,0.02537 0.05492,0.08715 0.06464,0.124203 0.0087,0.03319 0.01176,0.09636 0.0062,0.12907 -0.01897,0.112129 -0.08876,0.203343 -0.192411,0.251459 -0.04587,0.02129 -0.07874,0.02775 -0.138831,0.02728 -0.02751,-2.16e-4 -0.05657,-0.0019 -0.06459,-0.0038 z m 0.210868,-0.03886 c 0.01128,-0.0065 0.02051,-0.01262 0.02051,-0.01367 0,-0.001 -0.01011,0.0037 -0.02246,0.01053 -0.02609,0.01445 -0.02689,0.01498 -0.02214,0.01494 0.002,-2e-5 0.01281,-0.0053 0.02409,-0.0118 z m -0.270508,-6.51e-4 c -0.0043,-0.0024 -0.01886,-0.0111 -0.03236,-0.01925 -0.0135,-0.0081 -0.02354,-0.01319 -0.02231,-0.0112 0.003,0.0049 0.05364,0.0351 0.05857,0.03498 0.0021,-5.3e-5 3.91e-4,-0.0021 -0.0039,-0.0045 z m 0.354492,-0.06514 c 0.0188,-0.01824 0.03418,-0.03427 0.03418,-0.03562 0,-0.0014 -0.01538,0.01267 -0.03418,0.03115 -0.0188,0.01849 -0.04033,0.03849 -0.04785,0.04445 l -0.01367,0.01083 0.01367,-0.0088 c 0.0075,-0.0049 0.02905,-0.02375 0.04785,-0.04199 z"
     id="path30" />
  <path
     style="fill:#008000;fill-opacity:1;stroke-width:0.03125"
     d="M 7.523259,11.921412 C 7.329507,11.783415 7.2656143,11.440949 7.2656655,10.540706 7.2657022,9.8931756 7.2726275,9.7995972 7.3415267,9.515625 7.6253546,8.3458108 8.2572999,7.4072485 9.1732258,6.7951932 9.8989913,6.3102101 10.627582,6.0734326 11.451155,6.0549122 l 0.357404,-0.00804 0.07228,0.1061838 c 0.09805,0.1440372 0.09327,0.2682669 -0.01449,0.3760182 -0.07828,0.078279 -0.115736,0.088941 -0.382813,0.1089668 C 9.6955363,6.7721099 8.4227589,7.8096837 7.9697251,9.5025237 7.8272224,10.03501 7.8044713,10.938537 7.9213953,11.421875 c 0.050921,0.210495 0.038695,0.348119 -0.038583,0.43433 -0.090899,0.101406 -0.26452,0.132893 -0.3595535,0.06521 z"
     id="path32" />
</svg>
